<?xml version="1.0" encoding="UTF-8" standalone="no"?>
<!-- Created with Inkscape (http://www.inkscape.org/) -->

<svg
   xmlns:dc="http://purl.org/dc/elements/1.1/"
   xmlns:cc="http://creativecommons.org/ns#"
   xmlns:rdf="http://www.w3.org/1999/02/22-rdf-syntax-ns#"
   xmlns:svg="http://www.w3.org/2000/svg"
   xmlns="http://www.w3.org/2000/svg"
   xmlns:sodipodi="http://sodipodi.sourceforge.net/DTD/sodipodi-0.dtd"
   xmlns:inkscape="http://www.inkscape.org/namespaces/inkscape"
   id="svg8766"
   version="1.1"
   inkscape:version="0.48.5 r10040"
   width="1000"
   height="291.79297"
   xml:space="preserve"
   sodipodi:docname="zerotoeightfinal2011.pdf"><metadata
     id="metadata8772"><rdf:RDF><cc:Work
         rdf:about=""><dc:format>image/svg+xml</dc:format><dc:type
           rdf:resource="http://purl.org/dc/dcmitype/StillImage" /><dc:title></dc:title></cc:Work></rdf:RDF></metadata><defs
     id="defs8770"><clipPath
       clipPathUnits="userSpaceOnUse"
       id="clipPath8784"><path
         d="m 153,228.96 153,0 0,119.52 -153,0 0,-119.52 z"
         id="path8786"
         inkscape:connector-curvature="0" /></clipPath><clipPath
       clipPathUnits="userSpaceOnUse"
       id="clipPath8798"><path
         d="m 459,228.96 153,0 0,119.52 -153,0 0,-119.52 z"
         id="path8800"
         inkscape:connector-curvature="0" /></clipPath><clipPath
       clipPathUnits="userSpaceOnUse"
       id="clipPath8812"><path
         d="m 306,348.48 153,0 0,119.52 -153,0 0,-119.52 z"
         id="path8814"
         inkscape:connector-curvature="0" /></clipPath><clipPath
       clipPathUnits="userSpaceOnUse"
       id="clipPath8828"><path
         d="m 0,228.96 153,0 0,119.52 -153,0 0,-119.52 z"
         id="path8830"
         inkscape:connector-curvature="0" /></clipPath><clipPath
       clipPathUnits="userSpaceOnUse"
       id="clipPath8844"><path
         d="m 0,348.48 153,0 L 153,468 0,468 0,348.48 z"
         id="path8846"
         inkscape:connector-curvature="0" /></clipPath><clipPath
       clipPathUnits="userSpaceOnUse"
       id="clipPath8856"><path
         d="m 392.562,37.296 183.438,0 0,52.23 -183.438,0 0,-52.23 z"
         id="path8858"
         inkscape:connector-curvature="0" /></clipPath></defs><sodipodi:namedview
     pagecolor="#ffffff"
     bordercolor="#666666"
     borderopacity="1"
     objecttolerance="10"
     gridtolerance="10"
     guidetolerance="10"
     inkscape:pageopacity="0"
     inkscape:pageshadow="2"
     inkscape:window-width="1031"
     inkscape:window-height="1017"
     id="namedview8768"
     showgrid="false"
     fit-margin-top="0"
     fit-margin-left="0"
     fit-margin-right="0"
     fit-margin-bottom="0"
     inkscape:zoom="0.53992781"
     inkscape:cx="705.87653"
     inkscape:cy="101.67171"
     inkscape:window-x="886"
     inkscape:window-y="-1"
     inkscape:window-maximized="0"
     inkscape:current-layer="g8774" /><g
     id="g8774"
     inkscape:groupmode="layer"
     inkscape:label="zerotoeightfinal2011"
     transform="matrix(1.25,0,0,-1.25,-490.70253,338.41348)"><g
       id="g8852"
       style="fill:#2f2f2f;fill-opacity:1"
       transform="matrix(4.4693886,0,0,4.4693886,-1361.9501,-129.3957)"><g
         id="g8854"
         clip-path="url(#clipPath8856)"
         style="fill:#2f2f2f;fill-opacity:1"><g
           id="g8860"
           transform="translate(399.21,62.2154)"
           style="fill:#2f2f2f;fill-opacity:1"><path
             d="m 0,0 c -3.89,0 -6.648,2.613 -6.648,7.2 0,4.877 3.048,7.373 6.764,7.373 1.887,0 3.281,-0.493 4.384,-1.19 L 4.006,10.248 c -1.19,0.9 -2.322,1.306 -3.687,1.306 -2.003,0 -3.454,-1.48 -3.454,-4.267 0,-2.903 1.567,-4.297 3.687,-4.297 1.219,0 2.322,0.319 3.628,1.336 L 4.645,1.364 C 3.222,0.377 1.771,0 0,0"
             style="fill:#2f2f2f;fill-opacity:1;fill-rule:nonzero;stroke:none"
             id="path8862"
             inkscape:connector-curvature="0" /></g><g
           id="g8864"
           transform="translate(411.7802,73.9147)"
           style="fill:#2f2f2f;fill-opacity:1"><path
             d="m 0,0 c -2.061,0 -3.164,-1.829 -3.164,-4.442 0,-2.554 1.132,-4.442 3.164,-4.442 2.148,0 3.251,1.83 3.251,4.442 C 3.251,-1.858 2.09,0 0,0 m 0,-11.728 c -3.803,0 -6.561,2.728 -6.561,7.286 0,4.558 2.787,7.316 6.59,7.316 3.832,0 6.619,-2.758 6.619,-7.316 C 6.648,-9 3.832,-11.728 0,-11.728"
             style="fill:#2f2f2f;fill-opacity:1;fill-rule:nonzero;stroke:none"
             id="path8866"
             inkscape:connector-curvature="0" /></g><g
           id="g8868"
           transform="translate(437.3852,62.4765)"
           style="fill:#2f2f2f;fill-opacity:1"><path
             d="m 0,0 0,9.174 c 0,1.219 -0.435,2.061 -1.713,2.061 -1.074,0 -2.09,-0.697 -3.106,-1.742 l 0,-9.493 -3.484,0 0,9.174 c 0,1.219 -0.464,2.061 -1.742,2.061 -1.074,0 -2.09,-0.697 -3.106,-1.742 l 0,-9.493 -3.484,0 0,14.022 2.961,0 0.32,-1.974 c 1.306,1.248 2.729,2.264 4.616,2.264 2.003,0 3.077,-0.9 3.6,-2.264 1.248,1.248 2.787,2.264 4.674,2.264 2.641,0 3.948,-1.596 3.948,-4.209 L 3.484,0 0,0 z"
             style="fill:#2f2f2f;fill-opacity:1;fill-rule:nonzero;stroke:none"
             id="path8870"
             inkscape:connector-curvature="0" /></g><g
           id="g8872"
           transform="translate(460.8128,62.4765)"
           style="fill:#2f2f2f;fill-opacity:1"><path
             d="m 0,0 0,9.174 c 0,1.219 -0.435,2.061 -1.713,2.061 -1.074,0 -2.09,-0.697 -3.106,-1.742 l 0,-9.493 -3.484,0 0,9.174 c 0,1.219 -0.464,2.061 -1.742,2.061 -1.074,0 -2.09,-0.697 -3.106,-1.742 l 0,-9.493 -3.484,0 0,14.022 2.961,0 0.32,-1.974 c 1.306,1.248 2.729,2.264 4.616,2.264 2.003,0 3.077,-0.9 3.6,-2.264 1.248,1.248 2.787,2.264 4.674,2.264 2.641,0 3.948,-1.596 3.948,-4.209 L 3.484,0 0,0 z"
             style="fill:#2f2f2f;fill-opacity:1;fill-rule:nonzero;stroke:none"
             id="path8874"
             inkscape:connector-curvature="0" /></g><g
           id="g8876"
           transform="translate(473.441,73.9147)"
           style="fill:#2f2f2f;fill-opacity:1"><path
             d="m 0,0 c -2.061,0 -3.164,-1.829 -3.164,-4.442 0,-2.554 1.132,-4.442 3.164,-4.442 2.148,0 3.251,1.83 3.251,4.442 C 3.251,-1.858 2.09,0 0,0 m 0,-11.728 c -3.803,0 -6.561,2.728 -6.561,7.286 0,4.558 2.787,7.316 6.59,7.316 3.832,0 6.619,-2.758 6.619,-7.316 C 6.648,-9 3.832,-11.728 0,-11.728"
             style="fill:#2f2f2f;fill-opacity:1;fill-rule:nonzero;stroke:none"
             id="path8878"
             inkscape:connector-curvature="0" /></g><g
           id="g8880"
           transform="translate(490.7432,62.4765)"
           style="fill:#2f2f2f;fill-opacity:1"><path
             d="m 0,0 0,9.174 c 0,1.219 -0.523,2.061 -1.8,2.061 -1.103,0 -2.177,-0.697 -3.193,-1.771 l 0,-9.464 -3.484,0 0,14.022 2.961,0 0.319,-1.974 c 1.307,1.248 2.787,2.264 4.674,2.264 2.613,0 4.007,-1.596 4.007,-4.209 L 3.484,0 0,0 z"
             style="fill:#2f2f2f;fill-opacity:1;fill-rule:nonzero;stroke:none"
             id="path8882"
             inkscape:connector-curvature="0" /></g><g
           id="g8884"
           transform="translate(510.2181,62.2154)"
           style="fill:#2f2f2f;fill-opacity:1"><path
             d="m 0,0 c -2.032,0 -4.123,0.639 -5.458,1.364 l 0.464,2.903 c 1.51,-0.987 3.368,-1.654 5.11,-1.654 1.51,0 2.322,0.551 2.322,1.451 0,0.987 -0.609,1.394 -2.845,1.945 -3.396,0.871 -4.819,1.858 -4.819,4.413 0,2.41 1.916,4.122 5.168,4.122 1.829,0 3.512,-0.348 4.906,-0.987 L 4.383,10.654 c -1.393,0.784 -3.048,1.278 -4.441,1.278 -1.307,0 -1.945,-0.494 -1.945,-1.278 0,-0.754 0.522,-1.161 2.612,-1.713 C 4.238,8.012 5.661,7.025 5.661,4.384 5.661,1.626 3.687,0 0,0"
             style="fill:#2f2f2f;fill-opacity:1;fill-rule:nonzero;stroke:none"
             id="path8886"
             inkscape:connector-curvature="0" /></g><g
           id="g8888"
           transform="translate(523.6874,74.3792)"
           style="fill:#2f2f2f;fill-opacity:1"><path
             d="m 0,0 c -1.393,0 -2.526,-1.103 -2.787,-3.396 l 5.574,0 C 2.555,-1.219 1.684,0 0,0 m 6.155,-5.574 -9,0 c 0.174,-2.729 1.626,-3.919 3.774,-3.919 1.8,0 3.281,0.668 4.819,1.742 l 0.407,-2.729 c -1.51,-1.045 -3.339,-1.713 -5.603,-1.713 -3.919,0 -6.852,2.235 -6.852,7.287 0,4.558 2.729,7.316 6.387,7.316 4.21,0 6.097,-3.165 6.097,-7.142 0,-0.29 -0.029,-0.639 -0.029,-0.842"
             style="fill:#2f2f2f;fill-opacity:1;fill-rule:nonzero;stroke:none"
             id="path8890"
             inkscape:connector-curvature="0" /></g><g
           id="g8892"
           transform="translate(540.7572,62.4765)"
           style="fill:#2f2f2f;fill-opacity:1"><path
             d="m 0,0 0,9.174 c 0,1.219 -0.523,2.061 -1.8,2.061 -1.103,0 -2.177,-0.697 -3.194,-1.771 l 0,-9.464 -3.483,0 0,14.022 2.961,0 0.319,-1.974 c 1.307,1.248 2.787,2.264 4.674,2.264 2.613,0 4.007,-1.596 4.007,-4.209 L 3.484,0 0,0 z"
             style="fill:#2f2f2f;fill-opacity:1;fill-rule:nonzero;stroke:none"
             id="path8894"
             inkscape:connector-curvature="0" /></g><g
           id="g8896"
           transform="translate(551.9044,62.2154)"
           style="fill:#2f2f2f;fill-opacity:1"><path
             d="m 0,0 c -2.032,0 -4.122,0.639 -5.458,1.364 l 0.465,2.903 c 1.51,-0.987 3.368,-1.654 5.109,-1.654 1.51,0 2.323,0.551 2.323,1.451 0,0.987 -0.61,1.394 -2.845,1.945 -3.397,0.871 -4.819,1.858 -4.819,4.413 0,2.41 1.916,4.122 5.167,4.122 1.829,0 3.513,-0.348 4.906,-0.987 L 4.384,10.654 c -1.394,0.784 -3.048,1.278 -4.442,1.278 -1.306,0 -1.945,-0.494 -1.945,-1.278 C -2.003,9.9 -1.48,9.493 0.61,8.941 4.239,8.012 5.661,7.025 5.661,4.384 5.661,1.626 3.687,0 0,0"
             style="fill:#2f2f2f;fill-opacity:1;fill-rule:nonzero;stroke:none"
             id="path8898"
             inkscape:connector-curvature="0" /></g><g
           id="g8900"
           transform="translate(565.3744,74.3792)"
           style="fill:#2f2f2f;fill-opacity:1"><path
             d="m 0,0 c -1.394,0 -2.526,-1.103 -2.787,-3.396 l 5.574,0 C 2.554,-1.219 1.683,0 0,0 m 6.154,-5.574 -8.999,0 c 0.174,-2.729 1.625,-3.919 3.774,-3.919 1.8,0 3.28,0.668 4.819,1.742 l 0.406,-2.729 c -1.509,-1.045 -3.338,-1.713 -5.603,-1.713 -3.919,0 -6.851,2.235 -6.851,7.287 0,4.558 2.729,7.316 6.387,7.316 4.209,0 6.096,-3.165 6.096,-7.142 0,-0.29 -0.029,-0.639 -0.029,-0.842"
             style="fill:#2f2f2f;fill-opacity:1;fill-rule:nonzero;stroke:none"
             id="path8902"
             inkscape:connector-curvature="0" /></g><g
           id="g8904"
           transform="translate(472.4264,37.4152)"
           style="fill:#2f2f2f;fill-opacity:1"><path
             d="m 0,0 0,3.76 c 0,0.5 -0.179,0.845 -0.702,0.845 -0.44,0 -0.857,-0.286 -1.273,-0.714 l 0,-3.891 -1.428,0 0,3.76 c 0,0.5 -0.19,0.845 -0.714,0.845 -0.44,0 -0.857,-0.286 -1.273,-0.714 l 0,-3.891 -1.428,0 0,5.747 1.214,0 0.131,-0.809 c 0.535,0.512 1.118,0.928 1.892,0.928 0.821,0 1.261,-0.369 1.475,-0.928 0.511,0.512 1.142,0.928 1.915,0.928 1.083,0 1.619,-0.655 1.619,-1.725 L 1.428,0 0,0 z"
             style="fill:#2f2f2f;fill-opacity:1;fill-rule:nonzero;stroke:none"
             id="path8906"
             inkscape:connector-curvature="0" /></g><g
           id="g8908"
           transform="translate(477.4346,42.2936)"
           style="fill:#2f2f2f;fill-opacity:1"><path
             d="m 0,0 c -0.571,0 -1.035,-0.452 -1.142,-1.392 l 2.284,0 C 1.047,-0.499 0.69,0 0,0 m 2.522,-2.284 -3.688,0 c 0.071,-1.119 0.666,-1.607 1.547,-1.607 0.738,0 1.344,0.274 1.975,0.715 L 2.522,-4.295 C 1.904,-4.724 1.154,-4.997 0.226,-4.997 c -1.606,0 -2.808,0.916 -2.808,2.986 0,1.868 1.119,2.999 2.618,2.999 1.725,0 2.498,-1.297 2.498,-2.927 0,-0.119 -0.012,-0.262 -0.012,-0.345"
             style="fill:#2f2f2f;fill-opacity:1;fill-rule:nonzero;stroke:none"
             id="path8910"
             inkscape:connector-curvature="0" /></g><g
           id="g8912"
           transform="translate(484.6567,41.8294)"
           style="fill:#2f2f2f;fill-opacity:1"><path
             d="m 0,0 c -0.357,0.167 -0.631,0.25 -1.118,0.25 -0.75,0 -1.297,-0.606 -1.297,-1.868 0,-1.118 0.476,-1.642 1.106,-1.642 0.524,0 0.928,0.309 1.309,0.785 L 0,0 z m 0.202,-4.414 -0.119,0.797 c -0.404,-0.488 -0.964,-0.916 -1.761,-0.916 -1.201,0 -2.165,0.892 -2.165,2.832 0,2.142 1.178,3.094 2.51,3.094 0.548,0 0.987,-0.096 1.333,-0.215 l 0,2.773 1.428,0.226 0,-8.591 -1.226,0 z"
             style="fill:#2f2f2f;fill-opacity:1;fill-rule:nonzero;stroke:none"
             id="path8914"
             inkscape:connector-curvature="0" /></g><path
           d="m 487.797,43.163 1.428,0 0,-5.747 -1.428,0 0,5.747 z m 0.726,0.963 c -0.476,0 -0.857,0.333 -0.857,0.809 0,0.488 0.381,0.833 0.857,0.833 0.464,0 0.845,-0.345 0.845,-0.833 0,-0.476 -0.381,-0.809 -0.845,-0.809"
           style="fill:#2f2f2f;fill-opacity:1;fill-rule:nonzero;stroke:none"
           id="path8916"
           inkscape:connector-curvature="0" /><g
           id="g8918"
           transform="translate(494.0081,40.283)"
           style="fill:#2f2f2f;fill-opacity:1"><path
             d="m 0,0 c -1.654,-0.202 -2.047,-0.69 -2.047,-1.238 0,-0.416 0.262,-0.666 0.702,-0.666 0.488,0 0.952,0.226 1.345,0.619 L 0,0 z m 0.202,-2.868 -0.119,0.75 c -0.463,-0.488 -1.059,-0.868 -1.916,-0.868 -0.975,0 -1.629,0.594 -1.629,1.593 C -3.462,0 -2.32,0.606 0,0.833 l 0,0.166 c 0,0.619 -0.357,0.857 -0.988,0.857 -0.666,0 -1.297,-0.19 -1.915,-0.464 l -0.179,1.142 c 0.667,0.262 1.368,0.464 2.285,0.464 1.487,0 2.225,-0.547 2.225,-1.928 l 0,-3.938 -1.226,0 z"
             style="fill:#2f2f2f;fill-opacity:1;fill-rule:nonzero;stroke:none"
             id="path8920"
             inkscape:connector-curvature="0" /></g><g
           id="g8922"
           transform="translate(481.1433,49.1681)"
           style="fill:#30a649;fill-opacity:1"><path
             d="m 0,0 c -6.554,0 -12.713,3.23 -16.474,8.64 -0.444,0.638 -0.288,1.517 0.346,1.962 0.635,0.444 1.509,0.29 1.952,-0.347 C -10.938,5.598 -5.639,2.817 0,2.817 c 9.53,0 17.284,7.789 17.284,17.363 0,9.572 -7.754,17.361 -17.284,17.361 -5.639,0 -10.938,-2.78 -14.176,-7.435 -0.443,-0.639 -1.317,-0.795 -1.952,-0.348 -0.634,0.444 -0.79,1.323 -0.346,1.96 3.761,5.41 9.92,8.64 16.474,8.64 11.078,0 20.087,-9.053 20.087,-20.178 C 20.087,9.054 11.078,0 0,0"
             style="fill:#30a649;fill-opacity:1;fill-rule:nonzero;stroke:none"
             id="path8924"
             inkscape:connector-curvature="0" /></g></g></g></g></svg>