<svg xmlns="http://www.w3.org/2000/svg" width="142" height="34" fill="#ed5243"  xmlns:v="https://vecta.io/nano"><path d="M141.668 18.543c0 .254-.014.45-.04.582s-.1.243-.26.322c-.114.206-.594.634-1.433 1.285a19.54 19.54 0 0 1-3.089 2.001c-1.368.713-2.513 1.073-3.434 1.073a3.41 3.41 0 0 1-.89-.12c-.8-.254-1.34-.552-1.813-.963-.6-.535-1.24-1.556-1.24-2.666v-.494c0-.158.003-.487.103-1.028.174-.942.65-1.676 1.205-2.526.722-1.107 1.2-1.748 3.182-3.07a9.37 9.37 0 0 1 2.083-.99c.88-.302 1.927-.408 2.602-.408.8 0 1.397.274 1.6.668s.32.8.32 1.237c0 .747-.273 1.52-.814 2.323a8.4 8.4 0 0 1-1.976 2.06 5.94 5.94 0 0 1-2.546 1.097c-.607.1-1.557.168-2.84.168h-.864l-.075 1.05c0 .795.214 1.398.644 1.8s.956.62 1.582.62c1.052 0 2.485-.548 4.298-1.642 1.632-.984 2.758-1.864 3.384-2.642.2-.086.3 0 .3.254zm-2.52-5.476c-.13-.24-.412-.356-.84-.356-.476 0-1.04.147-1.692.442s-1.2.624-1.617.987l-1.852 1.786c-.775.874-1.4 1.827-1.4 2.4h1.646c.558 0 1.436-.16 2.13-.4.807-.285 1.504-.727 2-1.278.583-.634.874-1.007 1.148-1.46.402-.66.62-1.062.62-1.525a1.27 1.27 0 0 0-.15-.593zm-33.08 5.417c0 .254-.2.658-.035.63.135-.02-.018.13-.235.298l-2.833 2.073a29.8 29.8 0 0 1-2.979 1.881c-.327.192-.647.284-.96.284-.6 0-1.386-.12-1.38-.768.007-.425.128-.65.2-.922.245-.668.6-1.55 1.33-3.1l1.802-4.16c.114-.32.277-.72.277-.96 0-.35-.13-.493-.4-.624-.145-.072-.238-.113-.682-.113-.512 0-.974.092-1.092.165s-.053.014-.25.377c-.544 1.032-1.258 2.1-2.147 3.238s-1.713 2-2.47 2.618c-.213.048-.306-.062-.27-.332 0-.27.036-.46.1-.572l.16-.26c.757-.795 1.433-1.597 2.026-2.406l1.532-2.334.174-.3c.114-.192.174-.35.174-.476a.7.7 0 0 0-.124-.38c-.2-.38-.295-.747-.295-1.097 0-.285.057-.538.174-.76s.295-.387.544-.5c.1-.048.188-.072.27-.072.245 0 .47.12.668.356s.295.524.295.857c0 .302.028.507.085.62s.146.168.26.168a3.34 3.34 0 0 0 .384-.058l.36-.058a3.69 3.69 0 0 1 .444-.024c.558 0 1.002.103 1.333.308.412.27.62.675.62 1.213a3.06 3.06 0 0 1-.175.977c-.245.8-.675 1.85-1.283 3.12l-1.632 3.547c-.13.302-.2.555-.2.76 0 .237.185.52.388.583.25.075.476-.1.65-.16a22.28 22.28 0 0 0 1.65-1.073l3.22-2.258c.13-.017.224-.562.24-.545.036.034.05.113.05.24zM25.22 2.213l-.74 1.857-1.308 3.55c-.05.175-.192.466-.192.56 0 .223.02.254.402.254h.37l1.013.048c.1.048.13.192.1.428-.05.236-.135.398-.26.476s-.327.12-.604.12h-1.074c-.064-.003-.327-.05-.45.106s-.235.5-.334.778l-2.076 5.445-2.05 5.065c-.114.284-.174.555-.174.805 0 .35.1.5.416.425.192-.044.124-.027.55-.267a35.25 35.25 0 0 0 2.791-1.881l2.32-1.737c.163-.048.245.055.245.308.018.08.025.182.025.308 0 .27-.1.452-.27.548-1.138 1.05-2.47 2.036-4.003 2.964s-2.666 1.4-3.4 1.4c-.263 0-.45-.055-.57-.168-.163-.158-.245-.398-.245-.713 0-.524.213-1.285.643-2.286l.814-1.713c.164-.332.245-.62.245-.857 0-.254-.1-.38-.295-.38-.213 0-.476.175-.8.524-.245.27-.693.682-1.333 1.237-.1.048-.18.048-.245 0a.32.32 0 0 1-.142-.28c0-.157 0-.178.1-.32.092-.137.203-.247.302-.36l1.913-1.75c.444-.446.722-.672 1.43-1.62.277-.4.5-.833.7-1.158s.36-.685.505-1.083l.963-2.454c.082-.206.124-.356.124-.452 0-.158-.103-.27-.3-.332s-.6-.096-1.148-.096h-.718c-.444 0-.668-.117-.668-.35 0-.048.028-.144.085-.3s.128-.243.2-.3.28-.07.594-.07h2.023c.213 0 .366-.034.46-.106s.185-.243.284-.5l1.258-3.324c.43-1.093.84-2.005 1.237-2.73l.27-.452c.15-.158.32-.212.52-.168.18.048.665.038.665.404 0 .2-.12.504-.156.6z"/><path d="M36.374 18.58c0 .35-.082.627-.245.833-.658.62-1.205 1.035-1.642 1.25s-.935.36-1.497.442c-.15.017-.366-.02-.654-.106s-.473-.13-.555-.13c-.163 0-.288.065-.37.192-.345.494-.93 1.032-1.753 1.62-1.102.778-2.1 1.17-3 1.17a2.45 2.45 0 0 1-1.088-.24c-.643-.302-1.127-.864-1.457-1.7-.263-.668-.395-1.398-.395-2.2 0-.363.025-.668.075-.905 0-.507.28-1.326.84-2.454.476-.953 1.052-1.775 1.728-2.464s1.486-1.306 2.432-1.844 1.7-.8 2.286-.8c.295 0 .5.08.62.236.068.08.1.192.1.332 0 .35-.132.548-.398.596a9.95 9.95 0 0 0-2.602 1.059c-.793.47-1.422 1.107-2.058 1.775-.707.74-1.06 1.34-1.216 2.214a6.81 6.81 0 0 0-.057 2.282c.15 1.36.505 1.803.786 2.073.17.168.658.432.9.47.2.027.537.192 1.383-.1.73-.26 1.195-.82 1.607-1.26.213-.206.32-.42.32-.644l-.34-1.203a4.95 4.95 0 0 1-.153-1.275v-.404a3.45 3.45 0 0 1 .05-.5c.114-.874.427-1.7.94-2.454.608-.905 1.3-1.357 2.076-1.357.082 0 .235.024.46.072s.387.195.494.442.16.57.16.963a6.39 6.39 0 0 1-.05.881l-.185 1.025c-.1.46-.313 1.02-.668 1.68s-.53 1.138-.53 1.44a1.13 1.13 0 0 0 .06.38c.04.1.153.168.334.168.345 0 .864-.23 1.557-.692.576-.38 1.063-.778 1.458-1.2.114-.017.188 0 .224.048.01.02.02.116.02.278zm-3.56-1.977a5.17 5.17 0 0 0 .26-.823 3.73 3.73 0 0 0 .085-.798c0-.446-.14-.668-.42-.668-.313 0-.6.212-.864.644-.2.32-.373.72-.53 1.203a5.04 5.04 0 0 0-.235 1.559c0 .38.028.682.085.905s.153.356.284.404c.263.113.55-.254.864-1.097l.47-1.33zM63.2 18.025l-1.042 1.14-2.065 2.08-2.695 2.3-2.37 2.07c-.28.254-.54.586-.78 1l-.48.833c-.132.24-.452.953-.963 2.142l-.8 1.594c-.363.682-.668 1.175-.914 1.477-.295.38-.576.572-.84.572-.114 0-.206-.017-.27-.048-.245-.127-.37-.4-.37-.857 0-.38.1-.853.27-1.415a9.67 9.67 0 0 1 .668-1.583c.345-.634 1.07-1.707 2.172-3.214l.914-1.38c.163-.223.832-1.635 2-4.236l1.308-2.882c.1-.236.28-.284 0 0-1.17 1.32-1.88 2.2-3.146 3.273-1.152.97-1.8 1.5-2.787 2.084-1.27.713-1.902.703-2.158.668-.44-.055-.825-.254-.917-.374s-.163-.22-.13-.565c.02-.22.15-.446.23-.668s.33-.792.576-1.3c.594-1.254.587-1.295.658-1.744l.02-.445c0-.158-.068-.236-.2-.236-.114 0-.256.08-.42.236l-.48.442-.53.418c-.114.017-.188-.017-.22-.096s-.636.058-.487-.045c.43-.302 1.468-1.145 1.65-1.32.526-.428.704-.65 1.017-.953.427-.445.76-.83.974-1.15l.857-1.34c.3-.548.44-.898.622-1.312.18-.494.2-.53.44-1.02.135-.288.33-.35.793-.326.2.01.4.075.4.25 0 .048-.03.137-.085.264l-.135.284-2.496 5.192-1.26 2.858c-.114.32-.174.555-.174.713 0 .175.206.332.33.373.3.103.6-.027.853-.137a8.44 8.44 0 0 0 .853-.535c1.333-1.014 2.545-2.056 4.472-4.225 1.756-1.974 2.314-3.194 3.007-4.56.164-.223.206-.504 1.116-.497h.32c.363 0 .384.1.384.267 0 .096-.05.24-.15.428l-2.396 4.976-2.222 5c-.1.27-.15.46-.15.572 0 .158.057.236.174.236.13 0 .295-.096.494-.284l2.297-2.025 3.846-3.376c.33-.288.565-.086.597-.003.004.017.025.17-.192.4zm19.816.485c0 .254-.014.45-.04.583s-.1.243-.26.322c-.114.206-.594.634-1.433 1.285a19.56 19.56 0 0 1-3.089 2.001c-1.37.713-2.513 1.073-3.434 1.073a3.41 3.41 0 0 1-.89-.12c-.8-.254-1.34-.552-1.813-.963-.612-.535-1.24-1.556-1.24-2.666v-.493a5.4 5.4 0 0 1 .103-1.028c.174-.942.65-1.676 1.205-2.526.722-1.107 1.2-1.748 3.182-3.07.7-.425 1.202-.7 2.083-1s1.927-.408 2.602-.408c.8 0 1.397.274 1.6.668a2.58 2.58 0 0 1 .32 1.237c0 .747-.274 1.522-.814 2.324a8.4 8.4 0 0 1-1.977 2.06c-.775.572-1.62.936-2.545 1.097-.608.1-1.557.168-2.84.168h-.864l-.075 1.05c0 .795.213 1.398.643 1.8a2.24 2.24 0 0 0 1.582.62c1.052 0 2.485-.548 4.298-1.64 1.632-.984 2.76-1.864 3.384-2.642.2-.1.3 0 .3.254zm-2.52-5.48c-.132-.24-.412-.356-.84-.356-.476 0-1.042.147-1.692.442s-1.2.624-1.617.987l-1.852 1.786c-.775.874-1.4 1.827-1.4 2.4h1.646c.558 0 1.436-.16 2.13-.4.807-.284 1.504-.726 2-1.278.583-.634.874-1.008 1.148-1.46.402-.66.62-1.062.62-1.525a1.32 1.32 0 0 0-.149-.593z"/><path d="M94.518 18.484c0 .254-.2.658-.035.63.135-.02-.018.13-.235.298l-2.833 2.073a29.75 29.75 0 0 1-2.979 1.881c-.327.192-.647.284-.96.284-.6 0-1.386-.12-1.38-.768.007-.425.128-.65.2-.922.245-.668.6-1.55 1.33-3.1l1.802-4.16c.114-.32.277-.72.277-.96 0-.35-.132-.493-.4-.624-.146-.072-.238-.113-.683-.113-.512 0-.974.092-1.1.165s-.053.014-.25.377c-.544 1.032-1.258 2.1-2.147 3.238s-1.713 2-2.47 2.618c-.213.048-.306-.062-.27-.332 0-.27.035-.46.1-.572l.16-.26c.757-.795 1.433-1.597 2.026-2.406l1.532-2.334.174-.3c.114-.192.174-.35.174-.476a.7.7 0 0 0-.124-.38c-.2-.38-.295-.747-.295-1.097 0-.285.057-.538.174-.76s.295-.387.544-.5c.1-.048.188-.072.27-.072.245 0 .47.12.668.356s.295.524.295.857c0 .302.028.507.085.62s.146.168.26.168c.05 0 .178-.02.384-.058l.36-.058a3.7 3.7 0 0 1 .444-.024c.558 0 1.002.103 1.333.308.412.27.62.675.62 1.213 0 .302-.057.627-.174.977-.245.8-.675 1.85-1.283 3.12L88.5 20.938c-.132.302-.2.555-.2.76 0 .237.107.356.32.356a1.23 1.23 0 0 0 .48-.106 1.73 1.73 0 0 0 .459-.274l4.668-3.43c.13-.017.206-.017.22 0 .035.034.053.113.053.24zm25.712-.024c.014.175 0 .346-.05.514s-.174.315-.37.442c-.032.03-.412.35-1.137.956l-.914.716-2.197 1.556c-1.006.624-1.813.932-2.42.932-.113 0-.277-.024-.48-.072s-.3-.257-.3-.624c0-.175-.05-.572.23-1.648.036-.188.125-.394.1-.5-.213.158-.693.603-1.433 1.333-1.102 1.08-2.076 1.62-2.915 1.62-.33 0-.704-.08-1.123-.236s-.8-.58-1.113-1.26-.48-1.477-.48-2.382a6.54 6.54 0 0 1 .67-2.906c.508-1.062 1.294-2 2.346-2.8 1.184-.888 2.222-1.532 3.114-1.93a10.15 10.15 0 0 1 4.174-.881c.512 0 1.095.1 1.752.298s1 .425 1 .68c0 .096-.03.113-.143.28l-.202.267c-.103.123-.14.216-.22.216-.067 0-.163-.048-.295-.144-.2-.158-.47-.284-.814-.38s-.7-.144-1.063-.144c-1.4 0-2.922.435-4.568 1.3-1.745.936-3.047 2.063-3.903 3.382-.413.634-.62 1.453-.62 2.454 0 .572.078 1.104.235 1.597s.242.716.473 1.018a.83.83 0 0 0 .643.302c.725 0 2.04-.816 3.324-2.197.857-.936 1.6-1.758 2.808-3.444l1.77-2.676c.174-.264.505-.16.668-.1l.345.123c.153.058.2.158.2.32 0 .144-.032.284-.1.428l-.25.452-2.05 4.013a12.55 12.55 0 0 0-.569 1.35c-.18.5-.27.88-.27 1.134 0 .175.05.302.15.384.654.374 1.277-.075 3.136-1.42l2.552-1.998c.274-.113.33-.58.33-.325z"/><path d="M130.534 18.6c0 .192-.017.343-.05.452s-.125.223-.27.332c-1.283 1.333-2.495 2.34-3.63 3.026-1.284.778-2.42 1.23-3.623 1.23-.494 0-1.073-.058-1.443-.23a3.77 3.77 0 0 1-1.38-1.206c-.512-.778-.658-1.306-.8-2.385-.086-.648.07-1.443.334-2.16s.523-1.508 1.066-2.443c1.078-1.63 1.72-2.053 2.7-2.707 1.152-.764 2.45-1.117 4.106-1.117 1.408 0 2.115.744 2.115 1.587 0 1.03-.355 2.094-1.062 3.2-.082.192-.345.284-.8.284-.295 0-.43-.096-.394-.284a12.94 12.94 0 0 0 .789-1.751c.18-.514.27-.925.27-1.227 0-.446-.227-.747-.864-.737-.757.014-1.973.326-2.83.915-.38.254-.807.56-1.867 1.624-.547.66-1.05 1.484-1.468 2.365s-.63 1.737-.63 2.567c0 .5.103.97.3 1.385s.412.754.857 1.008c.458.26.917.476 1.692.445 1.038-.04 2.346-.696 4.06-1.87 1.365-.936 1.827-1.892 2.47-2.652.15-.03.25-.007.295.072.032.07.04.16.025.288zM68.54 13.33l.132-.243 2.887-6.384 1.55-3.34.675-1.515H68.74c-2.115 0-2.624-.024-4.44.387-.658.147-1.415.572-2 .925-.626.38-.8.13-.896-.4-.174-.994.178-1.672 1.237-1.888 2.915-.596 5.3-.593 8.507-.685H81.7c1.07 0 2.638-.038 3.62.384.434.188.988.524.988.932 0 .627-.508.713-.9.675-.66-.648-4.547-.47-5.265-.476-1.48-.014-4.142.223-4.142.223-.4.6-.604 1.018-.9 1.563-3.324 6.148-5.972 12.563-8.087 19.188-.01.027-.018.055-.032.082l-.55 1.062c-.338-.346-.878-.65-.97-1.052-.135-.583-.092-1.285.12-1.85.84-2.238 1.78-4.44 2.677-6.662.114-.302.195-.6.3-.912zm-20.653 5.785c.135-.02-.018.13-.235.298l-2.833 2.073a29.75 29.75 0 0 1-2.979 1.881c-.327.192-.647.284-.96.284-.6 0-1.386-.12-1.38-.768.007-.425.128-.65.2-.922.245-.668.6-1.55 1.33-3.1l1.802-4.16c.114-.32.277-.72.277-.96 0-.35-.132-.493-.4-.624-.146-.072-.238-.113-.682-.113-.512 0-.974.092-1.1.165s-.053.014-.25.377c-.544 1.032-1.258 2.1-2.147 3.238s-1.713 2-2.47 2.618c-.213.048-.306-.062-.27-.332 0-.27.035-.46.1-.572l.16-.26c.757-.795 1.433-1.597 2.026-2.406l1.532-2.334.174-.3c.114-.192.174-.35.174-.476a.7.7 0 0 0-.124-.38c-.2-.38-.295-.747-.295-1.097 0-.285.057-.538.174-.76s.295-.387.544-.5c.1-.048.188-.072.27-.072.245 0 .47.12.668.356s.295.524.295.857c0 .302.03.507.085.62s.146.168.26.168c.05 0 .178-.02.384-.058l.36-.058a3.7 3.7 0 0 1 .444-.024c.558 0 1.003.103 1.333.308.412.27.62.675.62 1.213 0 .302-.057.627-.174.977-.245.8-.675 1.85-1.283 3.12l-1.632 3.547c-.13.302-.2.555-.2.76 0 .237.185.52.387.583.25.075.476-.1.65-.16a21.92 21.92 0 0 0 1.65-1.073l3.22-2.258c.135-.014.085.353.256.326zM15.6 1.633c-.6-2.196-3.517-1.5-3.517-1.5-2.407.343-5.198 1.985-5.198 1.985C2.814 4.354 2.33 7.76 2.33 7.76c-.64 3.513 2.812 5.202 2.812 5.202l2.816 1.535c2.737 1.268 3.24 2.752 3.24 2.752.814 2.296-.84 3.783-.84 3.783-3.46 2.975-6.95.912-6.95.912C.866 20.334 1.1 17.62 1.1 17.62l.057-.62.025-.233c.046-.415-.3-.428-.3-.428-.793-.12-.8.27-.8.27l-.036.26c-.324 2.313.782 4 .782 4 1.88 3.266 5.5 2.96 5.5 2.96 6.278-.476 7.103-4.97 7.103-4.97.604-4.205-2.552-5.565-2.552-5.565-1.586-.898-4.77-1.97-4.77-1.97-3.207-1.1-2.574-3.016-2.574-3.016.924-4.496 6.86-6.498 6.86-6.498 3.765-1.326 4.02.367 4.02.367.54 1.193-.924 2.454-.924 2.454-.366.394.444.774.444.774.32.178 1.038-.716 1.038-.716 1.23-1.724.633-3.067.633-3.067z"/></svg>