<?xml version="1.0" encoding="utf-8"?>
<svg xmlns="http://www.w3.org/2000/svg" width="408px" height="243px">
<path d="M221.19,125.99h5.82l-2.91-6.8L221.19,125.99z M212.75,135.03l9.81-23.01h3.11l9.82,23.01h-4.61l-2.16-5.1h-9.19l-2.16,5.1H212.75z M237.93,135.03v-15.94h4.09v1.28c1.24-1.12,2.75-1.61,4.29-1.61c2.16,0,4.09,0.99,5.33,2.5c1.27-1.35,3.27-2.5,5.63-2.5c2.19,0,4.29,0.99,5.56,2.56c1.02,1.25,1.6,2.89,1.6,5.26v8.45h-4.25v-8.61c0-1.45-0.3-2.17-0.79-2.73c-0.65-0.72-1.57-0.99-2.39-0.99c-1.83,0-3.27,1.28-3.83,2.1c0.07,0.53,0.13,1.12,0.13,1.78v8.45h-4.25v-8.61c0-1.45-0.29-2.17-0.79-2.73c-0.65-0.72-1.57-0.99-2.39-0.99c-1.8,0-3.11,1.22-3.7,1.97v10.35H237.93 M278.54,125.01c-0.13-1.41-1.41-2.79-3.14-2.79c-1.77,0-3.21,1.35-3.4,2.79H278.54z M282.5,132.5c-1.54,1.84-4.06,2.86-6.51,2.86c-4.74,0-8.31-3.29-8.31-8.28c0-4.44,3.01-8.32,7.72-8.32c4.38,0,7.49,3.71,7.49,8.15c0,0.43-0.03,0.85-0.1,1.22H271.8c0.23,2.23,2.03,3.78,4.29,3.78c1.8,0,3.24-1.02,3.99-1.84L282.5,132.5z M296.13,122.87c-0.29-0.1-0.92-0.16-1.54-0.16c-1.86,0-3.34,1.35-3.86,2.3v10.03h-4.25v-15.94h4.09v1.61c0.95-1.18,2.68-1.94,4.61-1.94c0.62,0,0.98,0.07,1.44,0.13L296.13,122.87 M299.89,135.03h4.25v-15.94h-4.25V135.03z M302.02,110.71c1.54,0,2.78,1.18,2.78,2.73c0,1.55-1.24,2.73-2.78,2.73c-1.54,0-2.78-1.18-2.78-2.73C299.24,111.89,300.48,110.71,302.02,110.71z M323.44,131.78c-1.87,2.5-4.22,3.58-7.2,3.58c-4.91,0-8.51-3.68-8.51-8.28c0-4.63,3.7-8.32,8.54-8.32c2.75,0,5.2,1.28,6.67,3.19l-3.01,2.66c-0.85-1.12-2.13-1.91-3.66-1.91c-2.45,0-4.29,1.94-4.29,4.37c0,2.5,1.8,4.34,4.38,4.34c1.73,0,3.11-1.05,3.8-2.1L323.44,131.78 M337.66,124.68c-0.88-1.18-2.29-1.97-3.93-1.97c-2.49,0-4.09,2.07-4.09,4.37c0,2.5,1.8,4.34,4.19,4.34c1.6,0,3.01-0.79,3.83-1.97V124.68z M341.92,135.03h-4.09v-1.28c-1.31,1.12-2.81,1.61-4.42,1.61c-2.36,0-4.58-1.05-5.99-2.7c-1.24-1.45-2.03-3.42-2.03-5.59c0-4.7,3.47-8.32,7.79-8.32c1.8,0,3.4,0.59,4.65,1.61v-1.28h4.09V135.03z M346.81,135.03v-15.94h4.09v1.28c1.21-0.99,2.71-1.61,4.48-1.61c2.19,0,4.19,0.99,5.5,2.56c1.05,1.25,1.63,2.86,1.63,5.59v8.12h-4.25v-8.45c0-1.58-0.36-2.4-0.95-2.99c-0.56-0.56-1.41-0.89-2.39-0.89c-1.8,0-3.27,1.15-3.86,1.97v10.35H346.81 M231.05,157.53H219.6v10.35h-4.42v-23.01h4.42v8.71h11.45v-8.71h4.42v23.01h-4.42V157.53 M250.07,157.86c-0.13-1.41-1.41-2.79-3.14-2.79c-1.77,0-3.21,1.35-3.4,2.79H250.07z M254.03,165.36c-1.54,1.84-4.06,2.86-6.51,2.86c-4.74,0-8.31-3.29-8.31-8.29c0-4.44,3.01-8.32,7.72-8.32c4.38,0,7.49,3.72,7.49,8.15c0,0.43-0.03,0.85-0.1,1.22h-10.99c0.23,2.24,2.03,3.78,4.29,3.78c1.8,0,3.24-1.02,3.99-1.84L254.03,165.36z M269.3,157.53c-0.88-1.18-2.29-1.97-3.93-1.97c-2.49,0-4.09,2.07-4.09,4.37c0,2.5,1.8,4.34,4.19,4.34c1.6,0,3.01-0.79,3.83-1.97V157.53z M273.56,167.89h-4.09v-1.28c-1.31,1.12-2.81,1.61-4.42,1.61c-2.35,0-4.58-1.05-5.99-2.7c-1.24-1.45-2.03-3.42-2.03-5.59c0-4.7,3.47-8.32,7.79-8.32c1.8,0,3.4,0.59,4.65,1.61v-1.28h4.09V167.89z M288.1,155.72c-0.3-0.1-0.92-0.16-1.54-0.16c-1.87,0-3.34,1.35-3.86,2.3v10.03h-4.25v-15.94h4.09v1.61c0.95-1.18,2.68-1.94,4.61-1.94c0.62,0,0.98,0.07,1.44,0.13L288.1,155.72 M304.78,167.89c-0.56,0.2-1.83,0.33-2.65,0.33c-2.55,0-4.42-0.86-5.49-2.3c-0.82-1.09-1.18-2.5-1.18-4.77v-5.59h-4.42v-3.61h4.42v-4.44h4.25v4.44h5.23v3.61h-5.23v6.08c0,0.99,0.16,1.58,0.52,2.01c0.43,0.49,1.11,0.79,2.16,0.79c0.62,0,1.44-0.1,1.73-0.16L304.78,167.89 M220.82,191.7h5.82l-2.91-6.8L220.82,191.7z M212.38,200.74l9.82-23.01h3.11l9.81,23.01h-4.61l-2.16-5.09h-9.19l-2.16,5.09H212.38z M238.21,195.88c1.08,0.99,2.75,1.58,4.35,1.58c1.15,0,2.03-0.56,2.03-1.35c0-2.4-7.69-1.54-7.69-6.67c0-3.06,2.95-4.96,6.09-4.96c2.06,0,4.32,0.79,5.37,1.61l-2,3.09c-0.82-0.59-1.9-1.08-3.04-1.08c-1.18,0-2.16,0.46-2.16,1.28c0,2.07,7.69,1.25,7.69,6.77c0,3.06-2.98,4.93-6.32,4.93c-2.19,0-4.51-0.76-6.38-2.14L238.21,195.88 M253.08,195.88c1.08,0.99,2.75,1.58,4.35,1.58c1.14,0,2.03-0.56,2.03-1.35c0-2.4-7.69-1.54-7.69-6.67c0-3.06,2.94-4.96,6.09-4.96c2.06,0,4.32,0.79,5.37,1.61l-2,3.09c-0.82-0.59-1.9-1.08-3.04-1.08c-1.18,0-2.16,0.46-2.16,1.28c0,2.07,7.69,1.25,7.69,6.77c0,3.06-2.98,4.93-6.32,4.93c-2.19,0-4.51-0.76-6.38-2.14L253.08,195.88 M274.77,197.13c2.49,0,4.19-1.94,4.19-4.34c0-2.4-1.7-4.37-4.19-4.37c-2.49,0-4.19,1.97-4.19,4.37C270.58,195.19,272.28,197.13,274.77,197.13z M274.77,184.47c4.81,0,8.44,3.71,8.44,8.32c0,4.6-3.63,8.28-8.44,8.28c-4.81,0-8.44-3.68-8.44-8.28C266.32,188.18,269.96,184.47,274.77,184.47z M301.52,197.49c-1.87,2.5-4.22,3.58-7.2,3.58c-4.91,0-8.51-3.68-8.51-8.28c0-4.63,3.7-8.32,8.54-8.32c2.75,0,5.2,1.28,6.67,3.19l-3.01,2.66c-0.85-1.12-2.13-1.91-3.66-1.91c-2.45,0-4.28,1.94-4.28,4.37c0,2.5,1.8,4.34,4.38,4.34c1.73,0,3.11-1.05,3.79-2.1L301.52,197.49 M304.78,200.74h4.25V184.8h-4.25V200.74z M306.9,176.42c1.54,0,2.78,1.18,2.78,2.73c0,1.55-1.24,2.73-2.78,2.73c-1.54,0-2.78-1.18-2.78-2.73C304.12,177.6,305.37,176.42,306.9,176.42z M324.89,190.39c-0.88-1.18-2.29-1.97-3.92-1.97c-2.49,0-4.09,2.07-4.09,4.37c0,2.5,1.8,4.34,4.19,4.34c1.6,0,3.01-0.79,3.83-1.97V190.39z M329.15,200.74h-4.09v-1.28c-1.31,1.12-2.81,1.61-4.42,1.61c-2.36,0-4.58-1.05-5.99-2.7c-1.24-1.45-2.03-3.42-2.03-5.59c0-4.7,3.47-8.32,7.79-8.32c1.8,0,3.4,0.59,4.65,1.61v-1.28h4.09V200.74z M345.98,200.74c-0.56,0.2-1.83,0.33-2.65,0.33c-2.55,0-4.42-0.85-5.5-2.3c-0.82-1.09-1.18-2.5-1.18-4.77v-5.59h-4.42v-3.61h4.42v-4.44h4.25v4.44h5.23v3.61h-5.23v6.08c0,0.99,0.16,1.58,0.52,2.01c0.43,0.49,1.11,0.79,2.16,0.79c0.62,0,1.44-0.1,1.73-0.16L345.98,200.74 M350.23,200.74h4.25V184.8h-4.25V200.74z M352.35,176.42c1.54,0,2.78,1.18,2.78,2.73c0,1.55-1.24,2.73-2.78,2.73c-1.54,0-2.78-1.18-2.78-2.73C349.57,177.6,350.82,176.42,352.35,176.42z M366.51,197.13c2.49,0,4.19-1.94,4.19-4.34c0-2.4-1.7-4.37-4.19-4.37c-2.49,0-4.19,1.97-4.19,4.37C362.33,195.19,364.03,197.13,366.51,197.13z M366.51,184.47c4.81,0,8.44,3.71,8.44,8.32c0,4.6-3.63,8.28-8.44,8.28c-4.81,0-8.44-3.68-8.44-8.28C358.07,188.18,361.7,184.47,366.51,184.47z M378.54,200.74V184.8h4.09v1.28c1.21-0.99,2.71-1.61,4.48-1.61c2.19,0,4.19,0.99,5.5,2.56c1.05,1.25,1.64,2.86,1.64,5.59v8.12h-4.25v-8.45c0-1.58-0.36-2.4-0.95-2.99c-0.56-0.56-1.41-0.89-2.39-0.89c-1.8,0-3.27,1.15-3.86,1.97v10.35H378.54 M402.32,195.34c-0.18-0.07-0.44-0.11-0.77-0.11h-0.32v1.49h0.52c0.31,0,0.56-0.06,0.73-0.19c0.17-0.13,0.26-0.33,0.26-0.61C402.73,195.64,402.59,195.44,402.32,195.34z M399.88,199.45v-5.13c0.32,0,0.79,0,1.42,0c0.63,0,0.98,0.01,1.05,0.01c0.4,0.03,0.74,0.12,1.01,0.26c0.45,0.25,0.68,0.66,0.68,1.22c0,0.43-0.12,0.74-0.36,0.93c-0.24,0.19-0.53,0.31-0.88,0.34c0.32,0.07,0.56,0.17,0.72,0.3c0.3,0.24,0.45,0.63,0.45,1.15v0.46l0.01,0.15l0.04,0.15l0.05,0.14h-1.27c-0.04-0.16-0.07-0.4-0.08-0.71c-0.01-0.31-0.04-0.52-0.08-0.63c-0.07-0.18-0.19-0.31-0.38-0.38c-0.1-0.04-0.25-0.07-0.46-0.08l-0.29-0.02h-0.28v1.81H399.88z M399.19,194.2c-0.73,0.75-1.1,1.65-1.1,2.68c0,1.07,0.37,1.98,1.12,2.73c0.74,0.75,1.64,1.12,2.68,1.12c1.04,0,1.94-0.38,2.68-1.13c0.74-0.76,1.11-1.66,1.11-2.72c0-1.03-0.37-1.92-1.1-2.68c-0.75-0.77-1.64-1.15-2.69-1.15C400.84,193.05,399.94,193.43,399.19,194.2z M405.12,200.2c-0.89,0.87-1.97,1.31-3.22,1.31c-1.3,0-2.39-0.45-3.27-1.34c-0.89-0.89-1.33-1.99-1.33-3.29c0-1.35,0.48-2.47,1.44-3.37c0.9-0.84,1.95-1.25,3.17-1.25c1.27,0,2.35,0.45,3.25,1.35c0.9,0.9,1.35,1.99,1.35,3.27C406.5,198.19,406.04,199.3,405.12,200.2z"/>
<path fill="#C0242B" d="M172.23,164.11c-11.35,20.05-27.87,36.18-56.45,59.17c-4.6-57.43-1.16-90.47-1.16-90.47c-0.48-3.62-8.96-5.49-18.95-4.18c-9.99,1.31-17.7,5.31-17.22,8.92v0c0,0.01,13.64,39.68,23.34,96.79c-3.18,2.49-6.48,5.05-9.93,7.71c-43.9-33.93-66.16-52.87-80.36-77.95c-19.98-35.3-7.87-65.22,17.44-76.92c21.4-9.89,46.38-2.5,59.17,16.39c-18.77,3.35-32.59,11.84-31.92,16.92l6.11,16.41l0.34-0.04c-0.12-0.33-0.23-0.66-0.28-1c-0.89-6.74,13.47-14.18,32.08-16.62c18.61-2.44,34.41,1.04,35.29,7.78c0.05,0.34,0.03,0.69,0,1.04l0.14-0.02l1.84-17.46c-0.67-5.08-16.28-9.73-35.31-8.1c13-18.08,37.42-25,58.4-15.3C180.1,98.89,192.21,128.81,172.23,164.11z M136.48,50.93c17.39-7.16,27.34-32.6,11.78-50c4.59,20.51-21.64,22.29-42.22,26.12C67.35,34.3,61.05,69.93,78.59,88.11c-2.02-21.56,15.25-34.42,36.78-34.21c-7.77,4.66-13.93,15.89-10.94,27.16c10.49-15.41,42.4-1.5,53.01-36.88C150.37,49.84,141.14,51.46,136.48,50.93z"/>
<linearGradient id="SVGID1" gradientUnits="userSpaceOnUse" x1="173.3789" y1="167.3452" x2="114.5463" y2="167.3452">
	<stop  offset="0" style="stop-color:#C0242B"/>
	<stop  offset="0.9717" style="stop-color:#850303"/></linearGradient>
<path fill="url(#SVGID1)" d="M131.29,110.32c0.16,0.32,0.26,0.63,0.3,0.96l-1.84,17.52l-0.14,0.02c-0.4,4.25-6.47,8.65-15.6,11.84c-0.63,10.7-1.4,33.27,0.45,65.65c0,0.02,0,0.03,0,0.05c0,0,0,0,0,0c0,0.03,0,0.05,0,0.07c0,0,0,0,0,0c0.32,5.69,0.73,11.67,1.23,17.95c23.4-18.93,38.71-33.23,49.7-48.86c2.41-3.42,4.61-6.91,6.64-10.52c1.57-2.8,2.93-5.55,4.11-8.28L131.29,110.32z"/>
<path fill="#FFFFFF" d="M92.28,102.88c-20.86,2.75-36.82,12.16-36.1,17.62l6.11,16.47l0.34-0.04c-0.12-0.33-0.23-0.66-0.28-1c-0.89-6.76,13.48-14.23,32.08-16.67c18.61-2.45,34.41,1.05,35.3,7.81c0.05,0.34,0.03,0.69,0,1.04l0.14-0.02l1.84-17.52C130.99,105.1,113.13,100.13,92.28,102.88 M115.79,223.64c-4.65-57.66-1.17-90.82-1.17-90.82c-0.48-3.63-9.06-5.51-19.16-4.19c-10.1,1.32-17.9,5.33-17.42,8.96v0c0,0.01,13.79,39.83,23.61,97.16C106.66,230.86,111.37,227.16,115.79,223.64"/></svg>